<svg xmlns="http://www.w3.org/2000/svg" width="57" height="58" viewBox="0 0 57 58"><g><g><path fill="#ffc000" d="M57 28.999c0 15.991-11.439 29-25.5 29-1.021 0-2.026-.077-3.015-.21-1.032.138-2.013.21-2.985.21-5.4 0-10.41-1.925-14.537-5.195-.063-.043-.125-.085-.176-.142a27.283 27.283 0 0 1-4.738-4.94c-.046-.043-.076-.097-.113-.148a29.855 29.855 0 0 1-3.514-6.256C.87 37.576 0 33.402 0 28.998c0-2.814.36-5.534 1.022-8.109.013-.11.033-.216.078-.311a31.23 31.23 0 0 1 1.759-4.896.935.935 0 0 1 .07-.154A29.405 29.405 0 0 1 6.72 9.406c.038-.051.073-.101.12-.144a26.738 26.738 0 0 1 5.326-4.97l.004-.004c3.88-2.718 8.447-4.29 13.33-4.29.972 0 1.953.073 2.985.21a22.41 22.41 0 0 1 3.015-.21c14.061 0 25.5 13.01 25.5 29zM21.253 2.439c-1.591.335-3.117.876-4.58 1.56H18.6c.268-.18.536-.359.81-.528.186-.113.377-.22.566-.33.31-.18.625-.35.943-.517.113-.06.221-.127.334-.185zM10.31 45.113c-.083-.142-.162-.287-.243-.431a29.804 29.804 0 0 1-.642-1.193c-.074-.145-.15-.29-.222-.439A30.406 30.406 0 0 1 8.716 42H4.928a27.608 27.608 0 0 0 2.345 4h3.587a26.214 26.214 0 0 1-.549-.886zM3.357 19.999h3.906c.127-.44.26-.873.406-1.303l.128-.369c.156-.447.322-.89.498-1.329H4.468c-.421.97-.793 1.97-1.111 3zm-1.318 10h3.983c-.01-.334-.022-.665-.022-1 0-.657.026-1.306.063-1.952l.002-.048H2.078a31.454 31.454 0 0 0-.078 2c0 .337.028.666.039 1zm.12 2c.1 1.019.254 2.018.449 3h3.944a33.064 33.064 0 0 1-.265-1.653l-.01-.093a32.188 32.188 0 0 1-.141-1.254zm.648-10a30.24 30.24 0 0 0-.528 3h3.969c.011-.085.018-.17.029-.256l.01-.091a31.853 31.853 0 0 1 .396-2.295c.025-.119.047-.24.073-.359zm4.188 14.999h-3.92c.278 1.027.604 2.028.983 3h3.854l-.114-.33c-.043-.122-.087-.244-.128-.367a31.611 31.611 0 0 1-.549-1.802l-.033-.13c-.033-.123-.062-.247-.093-.37zm4.17-25.474c.118-.177.241-.35.363-.526H8.025A27.251 27.251 0 0 0 5.429 15h3.749c.008-.019.017-.035.026-.054.072-.148.148-.293.222-.439.206-.402.42-.8.642-1.192.081-.143.16-.288.243-.43.273-.463.559-.916.854-1.36zM9.759 8.998h3.302c.155-.184.307-.37.466-.55.18-.205.368-.401.554-.6.19-.205.384-.404.58-.6.198-.198.395-.397.598-.59.241-.226.488-.443.735-.66H13.23a24.272 24.272 0 0 0-3.472 3zm2.136 42h3.008c-.082-.08-.16-.167-.241-.248a28.908 28.908 0 0 1-.58-.6 24.028 24.028 0 0 1-1.485-1.709c-.116-.145-.228-.295-.341-.442H8.824a24.852 24.852 0 0 0 3.071 3zm9.023 4.375a22.754 22.754 0 0 1-.943-.518c-.19-.108-.38-.214-.566-.33a24.651 24.651 0 0 1-1.187-.777c-.217-.151-.428-.31-.641-.468-.126-.094-.254-.186-.379-.28h-2.42c2.01 1.188 4.178 2.075 6.47 2.557-.112-.056-.22-.124-.334-.184zM55 29c0-14.888-10.542-27-23.5-27-.794 0-1.58.047-2.354.136l-.397.055c-.05.005-.098.013-.147.02-.348.05-.693.108-1.036.174l-.074.015c-.335.065-.667.139-.996.22-.043.011-.086.025-.13.036-.31.078-.616.163-.92.256-.081.025-.162.054-.243.08-.264.083-.528.17-.79.265-.183.067-.365.142-.548.214-.156.061-.313.118-.467.184-5.375 2.275-9.834 6.746-12.546 12.464-.025.051-.047.104-.071.156-.146.312-.288.628-.423.948-.053.125-.102.251-.153.378-.102.25-.203.5-.298.755-.061.161-.117.323-.175.487-.08.223-.158.448-.232.674-.06.182-.116.367-.175.548a27.395 27.395 0 0 0-.504 1.863c-.047.202-.093.404-.137.607-.045.213-.088.428-.13.642-.038.205-.077.408-.112.614-.037.224-.071.447-.104.671-.029.202-.06.403-.086.605-.03.24-.055.482-.08.725-.02.19-.042.376-.058.567-.024.277-.04.559-.056.839-.009.156-.022.313-.03.472a29.11 29.11 0 0 0 .002 2.657c.008.158.02.313.03.471.016.281.032.562.056.84.016.19.038.377.058.567.025.242.049.485.08.725.026.203.056.403.086.604.033.224.066.449.104.67.035.206.074.411.113.614a25.972 25.972 0 0 0 .266 1.25 26.037 26.037 0 0 0 .315 1.223 33.943 33.943 0 0 0 .362 1.192c.075.226.153.45.232.674.058.163.115.326.175.487.096.254.196.505.298.754.05.127.1.254.153.378.135.32.277.637.423.949l.071.156c2.712 5.716 7.17 10.188 12.546 12.463.154.066.31.124.467.185.182.072.364.147.549.213.26.096.524.182.789.266.081.025.161.055.243.08.304.093.61.177.92.256l.13.035a19.876 19.876 0 0 0 1.07.236c.343.066.688.123 1.036.173.049.005.098.014.147.02l.397.056c.775.089 1.56.136 2.354.136 12.958 0 23.5-12.113 23.5-27zM30.478 7.474c0-.553.426-1 .979-1v1l.013-1h.012c.71 0 1.395.04 2.068.12a1 1 0 0 1-.232 1.986 15.905 15.905 0 0 0-1.818-.105c-.553 0-1.021-.447-1.022-1zm-7.541 2.317a1 1 0 0 1 .437-1.346c.625-.319 1.27-.602 1.916-.845a1 1 0 0 1 .7 1.874c-.575.214-1.15.469-1.708.752a1.001 1.001 0 0 1-1.345-.435zm25.158 11.681a1 1 0 0 1 1.893-.65c.223.65.42 1.317.587 1.982a1 1 0 0 1-1.94.487 22.652 22.652 0 0 0-.54-1.819zm-1.131-4.807a1.005 1.005 0 0 1-1.39-.267c-.351-.52-.732-1.03-1.13-1.513a1.001 1.001 0 0 1 1.545-1.271c.437.531.855 1.09 1.242 1.662.31.457.19 1.078-.267 1.389zM32.543 50.524c0 .552-.405 1-.958 1h-.084c-.7 0-1.406-.043-2.096-.124a1 1 0 1 1 .238-1.987c.61.073 1.236.11 1.857.11.553 0 1.043.449 1.043 1zm13.384-7.648a.998.998 0 0 1 .145 1.407 22.104 22.104 0 0 1-1.386 1.545 1 1 0 0 1-1.424-1.406 19.52 19.52 0 0 0 1.259-1.404 1 1 0 0 1 1.406-.142zm-5.827 5.31a1 1 0 0 1-.433 1.346c-.622.319-1.267.605-1.915.848a.998.998 0 0 1-1.29-.582.998.998 0 0 1 .584-1.288c.577-.218 1.15-.472 1.706-.757a1 1 0 0 1 1.348.433zm1.548-37.354a1.001 1.001 0 0 1-1.384.291 16.777 16.777 0 0 0-1.62-.932 1 1 0 0 1 .9-1.787c.619.312 1.228.663 1.813 1.044a1 1 0 0 1 .29 1.384zm9.685 18.102v.064c0 .669-.025 1.34-.076 1.994a1 1 0 1 1-1.994-.154c.047-.604.07-1.222.07-1.84 0-.553.447-1.031 1-1.031.553 0 1 .416 1 .967zm-38.666 1.074a.99.99 0 0 1-1-.99v-.02c0-.676.027-1.361.08-2.037.043-.55.53-.954 1.075-.918a1 1 0 0 1 .919 1.075 24.162 24.162 0 0 0-.074 1.88c0 .553-.447 1.01-1 1.01zm37.36 7.04c-.219.651-.47 1.3-.742 1.93a1 1 0 0 1-1.834-.798 22.54 22.54 0 0 0 .683-1.77 1.002 1.002 0 0 1 1.267-.629.998.998 0 0 1 .627 1.267zM15.566 19.782a21.547 21.547 0 0 0-.686 1.768 1 1 0 0 1-1.894-.643c.222-.655.474-1.303.748-1.93a1.001 1.001 0 0 1 1.832.804zm2.965 23.299a1.001 1.001 0 0 1-1.547 1.269 23.037 23.037 0 0 1-1.238-1.664 1 1 0 0 1 1.657-1.12c.358.527.738 1.038 1.128 1.515zm-3.64-6.596a1.001 1.001 0 0 1-1.891.648 24.44 24.44 0 0 1-.585-1.983 1 1 0 0 1 1.941-.483c.153.612.332 1.224.536 1.818zm4.87-24.351a.999.999 0 0 1 .006 1.413c-.438.441-.862.913-1.261 1.401a.999.999 0 1 1-1.55-1.266c.44-.537.909-1.057 1.39-1.543a1 1 0 0 1 1.415-.005zm4.998 37a1 1 0 0 1-1.344.439 19.075 19.075 0 0 1-1.81-1.048A1 1 0 0 1 22.7 46.85c.521.343 1.066.659 1.618.939.494.25.69.852.44 1.343zm15.09-18.377c.593.8.894 1.762.894 2.862 0 2.093-.748 3.786-2.224 5.026-1.412 1.188-3.437 1.806-6.023 1.837v1.287c0 .599-.388.987-.987.987s-.987-.387-.987-.987v-1.406c-2.051-.281-3.32-.62-5.047-2.005v1.316c0 .6-.387.987-.987.987s-.987-.386-.987-.987v-6.168c0-.6.389-.987.988-.987s.987.387.987.987v2.242c1.055 1.146 1.844 1.566 3.615 2.242a7.68 7.68 0 0 0 1.432.38v-9.564c-1.915-.531-3.365-1.039-4.316-1.509-1.052-.52-1.877-1.177-2.453-1.952-.593-.798-.894-1.729-.894-2.767 0-1.956.656-3.543 1.949-4.72 1.231-1.12 3.152-1.707 5.713-1.75v-1.29c0-.598.387-.986.987-.986s.987.387.987.987v1.428c1.815.337 3.37.965 4.629 1.867.327.232.173.439.402.618v-1.316c0-.598.388-.986.987-.986s.987.387.987.986v6.169c0 .6-.388.988-.988.988s-.987-.388-.987-.988v-2.081c-1.114-1.233-2.085-2.2-3.74-2.877a6.518 6.518 0 0 0-1.29-.397v8.937c.307.082.816.214 1.526.4 1.229.32 2.365.736 3.375 1.237 1.051.52 1.876 1.175 2.452 1.953zm-9.326-4.141V18.08c-1.92.04-3.356.456-4.272 1.24-.953.817-1.416 1.787-1.416 2.966 0 .73.221 1.346.677 1.885a4.948 4.948 0 0 0 1.77 1.328 15.73 15.73 0 0 0 2.108.787c.41.117.788.227 1.132.329zm7.712 10.933a5.922 5.922 0 0 1-.414.367c.017-.013.038-.023.055-.037.127-.108.247-.217.359-.33zm.535-3.736c0-.73-.222-1.345-.678-1.886A4.963 4.963 0 0 0 36.32 30.6a15.73 15.73 0 0 0-2.25-.818l-1.574-.44v9.165c2.023-.028 3.59-.477 4.658-1.334 1.086-.87 1.615-1.97 1.615-3.36z"/></g></g></svg>