<svg xmlns="http://www.w3.org/2000/svg" width="60" height="60" viewBox="0 0 60 60"><g><g><path fill="#ffc000" d="M8 30.004C8 17.87 17.869 8 30 8c12.13 0 22 9.87 22 22.004 0 12.132-9.87 22.003-22 22.003S8 42.137 8 30.004zm2 0c0 11.03 8.972 20.003 20 20.003 11.027 0 20-8.974 20-20.003C50 18.974 41.026 10 30 10s-20 8.974-20 20.004zM29 14v-2a1 1 0 1 1 2 0v2a1 1 0 1 1-2 0zm2 32.005v2a1 1 0 1 1-2 0v-2a1 1 0 0 1 2 0zm14-16.002a1 1 0 0 1 1-1h2a1 1 0 1 1 0 2h-2a1 1 0 0 1-1-1zm-30 0a1 1 0 0 1-1 1h-2a1 1 0 1 1 0-2h2a1 1 0 0 1 1 1zm3.293 10.708a1 1 0 0 1 0-1.414l8.273-8.275a3.954 3.954 0 0 1-.566-2.02c0-1.86 1.28-3.412 3-3.858v-5.143a1 1 0 1 1 2 0v5.143c1.72.446 3 1.999 3 3.859 0 2.206-1.795 4-4 4a3.96 3.96 0 0 1-2.02-.567l-8.273 8.275a.997.997 0 0 1-1.414 0zm9.706-11.708c0 1.102.897 2 2 2s2-.898 2-2c0-1.104-.897-2-2-2s-2 .896-2 2zM9.894 10H9V1a1 1 0 1 1 2 0V6.81A29.815 29.815 0 0 1 30 0C46.541-.001 60 13.459 60 30.004a1 1 0 0 1-2 0C58 14.562 45.44 1.999 30 1.999a27.834 27.834 0 0 0-17.301 6H18A1 1 0 0 1 18 10h-7.917a1.016 1.016 0 0 1-.19 0zM4.35 43.575a.954.954 0 0 1-.43.1 1 1 0 0 1-.44-1.901c.5-.24 1.09-.039 1.34.46.24.5.03 1.102-.47 1.34zm3.35 4.972c-.19.14-.4.21-.62.21-.29 0-.59-.13-.79-.391a.992.992 0 0 1 .18-1.4.993.993 0 0 1 1.4.18c.34.43.26 1.06-.17 1.401zm-1.8-2.4c-.17.1-.35.15-.53.15-.33 0-.66-.17-.85-.47-.29-.47-.15-1.08.32-1.381.47-.29 1.09-.15 1.38.32.29.469.15 1.09-.32 1.381zm3.86 3.19a.987.987 0 0 1-.03 1.41c-.19.19-.44.28-.69.28a.97.97 0 0 1-.72-.31.996.996 0 0 1 .03-1.41.995.995 0 0 1 1.41.03zm2.11 1.99c.42.36.47.989.11 1.409a1.002 1.002 0 0 1-1.41.11 1 1 0 1 1 1.3-1.52zm-10-13.272c-.45 0-.86-.31-.97-.76a.99.99 0 0 1 .72-1.21c.54-.14 1.08.19 1.22.72.13.54-.2 1.08-.73 1.22a.98.98 0 0 1-.24.03zm-.58-2.952a1 1 0 1 1 .99-1.139.997.997 0 0 1-.99 1.139zm1.8 5.75c-.12.04-.23.061-.35.061-.4 0-.79-.25-.93-.66a.995.995 0 1 1 1.87-.68.991.991 0 0 1-.59 1.28zm-3.07-9.69a.998.998 0 0 1 .96-1.04c.55-.02 1.02.411 1.04.96.02.55-.41 1.02-.96 1.04h-.04c-.53 0-.98-.43-1-.96zm14.15 21.924c.45.31.57.94.25 1.39-.19.281-.5.43-.82.43-.2 0-.39-.05-.57-.17a.998.998 0 0 1-.25-1.39c.31-.46.93-.57 1.39-.26zm36.18-2.41a.998.998 0 0 1-.06 1.411c-.19.17-.43.26-.67.26a1 1 0 0 1-.68-1.74v.008a.988.988 0 0 1 1.41.061zm2.029-2.22c.41.369.45 1 .08 1.409a.975.975 0 0 1-.75.341.996.996 0 0 1-.74-1.66c.36-.42.99-.45 1.41-.09zm1.79-2.41a1.005 1.005 0 0 1-.59 1.818 1.006 1.006 0 0 1-.81-1.588c.32-.44.95-.551 1.4-.23zm-6.06 6.62a.995.995 0 0 1-.8 1.59.956.956 0 0 1-.8-.4.997.997 0 1 1 1.6-1.19zm-2.44 1.75a.995.995 0 0 1-.85 1.51.98.98 0 0 1-.86-.49.997.997 0 0 1 .34-1.37c.48-.28 1.09-.12 1.37.35zm10.4-9.581c-.18.319-.52.5-.87.5-.17 0-.34-.04-.49-.13a.988.988 0 0 1-.37-1.36h-.01c.28-.48.89-.651 1.37-.38.48.28.65.89.37 1.37zm3.77-11.74c-.05.518-.49.9-.99.9h-.11a1.001 1.001 0 0 1 .21-1.992c.55.05.95.55.89 1.091zm-.48 3.07c-.09.47-.51.79-.97.79-.07 0-.14 0-.21-.022a.988.988 0 0 1-.77-1.18.986.986 0 0 1 1.18-.77c.54.111.89.64.77 1.182zm-.79 3c-.14.418-.53.689-.95.689-.1 0-.21-.01-.31-.04-.52-.17-.81-.74-.64-1.261.16-.53.73-.82 1.25-.65.53.17.82.731.65 1.261zm-1.1 2.898c-.17.372-.53.602-.92.602a.95.95 0 0 1-.4-.091.988.988 0 0 1-.51-1.32c.22-.5.81-.73 1.32-.51.5.22.73.81.51 1.32zm-14.4 13.843a.994.994 0 0 1-.9 1.42c-.38 0-.74-.21-.91-.58a.986.986 0 0 1 .49-1.32.982.982 0 0 1 1.32.48zm-17.49 2.781c-.1.481-.52.81-.99.81-.06 0-.12 0-.18-.01a1.001 1.001 0 1 1 1.17-.8zm2.98.3c-.04.52-.48.92-1 .92-.02 0-.05 0-.08-.01v.01a1 1 0 0 1-.91-1.09c.04-.55.53-.961 1.08-.91.55.05.95.53.91 1.08zm-5.92-.91c-.13.43-.53.71-.96.71-.09 0-.19-.01-.29-.04-.53-.16-.82-.721-.67-1.25.16-.52.72-.82 1.25-.66.53.149.83.71.67 1.239zm-2.86-.91c-.16.38-.53.61-.92.61-.13 0-.26-.018-.39-.069a.996.996 0 0 1-.53-1.311c.21-.51.79-.75 1.3-.54.51.21.75.799.54 1.31zm14.76 1.5c.07.55-.32 1.05-.87 1.12v-.01c-.04.01-.08.01-.12.01-.5 0-.93-.37-.99-.88a.997.997 0 0 1 .87-1.11.987.987 0 0 1 1.11.87zm5.791-1.54c.18.52-.1 1.09-.62 1.27-.11.03-.22.05-.33.05a.998.998 0 0 1-.32-1.94.993.993 0 0 1 1.27.62zm-2.85.92c.12.54-.22 1.08-.75 1.2-.08.02-.15.02-.23.02-.45 0-.87-.31-.97-.77a.993.993 0 0 1 .75-1.2c.54-.12 1.07.21 1.2.75zm-5.92.93a.998.998 0 0 1-.98 1.02h-.02a1 1 0 0 1-.02-2c.55-.01 1.01.43 1.02.98zm-14.53-3.02c-.18.341-.52.53-.88.53-.16 0-.32-.04-.47-.13a.996.996 0 1 1 .95-1.75c.49.259.67.87.4 1.35z"/></g></g></svg>