<svg xmlns="http://www.w3.org/2000/svg" width="60" height="60" viewBox="0 0 60 60"><g><g><path fill="#ffc000" d="M53.414 7.999l-19.981 19.98c.35.594.567 1.28.567 2.02 0 1.28-.616 2.409-1.554 3.141l11.826 13.866a1 1 0 0 1-1.036 1.61l-7.67-2.195a21.992 21.992 0 0 0 16.584 8.552c.456-1.707 2-2.974 3.85-2.974 2.206 0 4 1.794 4 4 0 2.205-1.794 4-4 4-1.87 0-3.429-1.292-3.866-3.027a23.99 23.99 0 0 1-18.549-9.873l-5.355 5.538a.997.997 0 0 1-1.177.194 1 1 0 0 1-.525-1.07l3.284-17.782a3.946 3.946 0 0 1-1.831-.548L8 53.413v5.585a1 1 0 0 1-1 1H1a1 1 0 0 1-1-1v-6a1 1 0 0 1 1-1h5.586l19.98-19.98a3.957 3.957 0 0 1-.566-2.02c0-1.85 1.269-3.395 2.978-3.85C28.54 14.691 19.306 5.458 7.851 5.02 7.396 6.73 5.85 8 4 8c-2.206 0-4-1.795-4-4 0-2.207 1.794-4 4-4 1.866 0 3.425 1.29 3.865 3.022 12.546.447 22.666 10.567 23.113 23.114.371.094.719.24 1.041.43l19.98-19.98V.998a1 1 0 0 1 1-1h6a1 1 0 0 1 1 1v5.999a1 1 0 0 1-1 1zM6 3.999c0-1.103-.897-2-2-2s-2 .897-2 2 .897 2 2 2 2-.897 2-2zm48 52c0 1.103.897 2 2 2s2-.897 2-2-.897-2-2-2-2 .897-2 2zm0-50h4v-4h-4zm-26 24a1.999 1.999 0 0 0 .587 1.412 1.996 1.996 0 0 0 1.413.587c1.103 0 2-.897 2-2A2.002 2.002 0 0 0 30 28c-1.103 0-2 .897-2 2zm-22 24H2v4h4zm34.598-8.216L31.61 35.247l-2.515 13.618 4.41-4.561a1 1 0 0 1 .994-.267z"/></g></g></svg>