<svg xmlns="http://www.w3.org/2000/svg" width="60" height="54" viewBox="0 0 60 54"><g><g><path fill="#ffc000" d="M60.001 6.998a6.96 6.96 0 0 1-2.047 4.95l-2.826 2.828-24.451 22.117-.002.001-4.453 4.027-.003.003-6.984 6.317c-.053.046-.115.07-.173.106.02 1.753-.055 3.806-1.445 5.22-.933.95-2.32 1.432-4.125 1.432H1.07a1.002 1.002 0 0 1-.367-1.93c.218-.089 5.377-2.211 5.377-7.154C6.08 40 10.1 40 12.26 40h.414c.29 0 .574.023.852.059l5.613-6.226 4.022-4.462L45.205 4.914l2.86-2.864A6.943 6.943 0 0 1 53.01-.002c1.867 0 3.623.73 4.944 2.052A6.956 6.956 0 0 1 60 6.998zM28.555 36.116l-4.617-4.624-2.681 2.973 4.33 4.335zM17.06 46.94c-.004-.248-.008-.49-.008-.72 0-.065-.016-.125-.018-.19 0-.008-.006-.015-.006-.024a4.147 4.147 0 0 0-.584-1.93l-.021-.038a4.24 4.24 0 0 0-.336-.46 4.183 4.183 0 0 0-.485-.502c-.052-.045-.108-.086-.162-.128a4.115 4.115 0 0 0-.431-.306c-.034-.02-.072-.035-.106-.055a4.441 4.441 0 0 0-1.22-.47c-.008-.002-.015-.006-.022-.007a4.634 4.634 0 0 0-.986-.112h-.414c-2.843 0-4.181.288-4.181 2.917 0 3.344-1.786 5.644-3.507 7.084h8.92c1.249 0 2.158-.28 2.701-.834.92-.935.89-2.683.866-4.225zm7.045-6.796l-4.186-4.191-4.276 4.743a6.129 6.129 0 0 1 3.254 4.157zm33.9-33.146a4.968 4.968 0 0 0-1.462-3.535 4.966 4.966 0 0 0-3.532-1.465 4.963 4.963 0 0 0-3.531 1.465l-2.826 2.828-21.375 23.715 4.762 4.768 23.713-21.446 2.788-2.795a4.97 4.97 0 0 0 1.463-3.535z"/></g></g></svg>