<svg xmlns="http://www.w3.org/2000/svg" width="56" height="56" viewBox="0 0 56 56"><g><g><path fill="#ffc000" d="M56 8.465v39.067c0 4.668-3.798 8.466-8.467 8.466H8.467C3.798 55.998 0 52.2 0 47.532V8.465C0 3.797 3.798-.002 8.467-.002h39.066C52.202-.002 56 3.797 56 8.465zm-2 0a6.474 6.474 0 0 0-6.467-6.467H8.467A6.474 6.474 0 0 0 2 8.465v19.119l4.833-4.833A4.967 4.967 0 0 1 6 20c0-2.758 2.243-5 5-5s5 2.242 5 5a4.968 4.968 0 0 1-.833 2.752l10.08 10.08a4.968 4.968 0 0 1 5.506 0L44.586 19H38a1 1 0 1 1 0-2h10v10a1 1 0 1 1-2 0v-6.586L32.167 34.245c.524.792.833 1.736.833 2.753 0 2.757-2.243 5-5 5s-5-2.243-5-5c0-1.017.309-1.961.833-2.753l-10.08-10.08a4.968 4.968 0 0 1-5.506 0L2 30.414v17.119a6.474 6.474 0 0 0 6.467 6.467h39.066A6.474 6.474 0 0 0 54 47.532zM14 19.999c0-1.655-1.346-3-3-3s-3 1.345-3 3a3.003 3.003 0 0 0 3 2.999c1.654 0 3-1.345 3-3zm14 13.999c-1.654 0-3 1.347-3 3 0 1.654 1.346 3 3 3s3-1.346 3-3c0-1.653-1.346-3-3-3z"/></g></g></svg>