<svg xmlns="http://www.w3.org/2000/svg" width="36" height="60" viewBox="0 0 36 60"><g><g><path fill="#ffc000" d="M3.293 14.706a1 1 0 0 1 0-1.415l4-4a1 1 0 1 1 1.414 1.415l-4 4a1 1 0 0 1-1.414 0zm0 5a.999.999 0 0 1 0-1.414l2-2a1 1 0 1 1 1.414 1.414l-2 2a1 1 0 0 1-1.414 0zm5.417-5.418c.18.19.29.45.29.71 0 .26-.11.52-.29.71-.19.18-.45.29-.71.29-.26 0-.521-.11-.71-.29-.181-.19-.29-.45-.29-.71 0-.27.109-.52.29-.71.37-.37 1.04-.37 1.42 0zm.583-1.997l3-3a1 1 0 1 1 1.414 1.415l-3 3a.997.997 0 0 1-1.414 0 .999.999 0 0 1 0-1.415zm4.414 2a1 1 0 0 1 0 1.415l-9 9a1 1 0 1 1-1.414-1.414l9-9.001a1 1 0 0 1 1.414 0zm2.003-2.003a1.013 1.013 0 0 1 0 1.42c-.19.18-.45.29-.71.29-.26 0-.521-.11-.71-.29a1.05 1.05 0 0 1-.29-.71c0-.271.109-.52.29-.71.37-.37 1.04-.37 1.42 0zm-3-9c.18.19.29.45.29.71 0 .26-.11.52-.29.71-.19.18-.45.29-.71.29-.26 0-.521-.11-.71-.29-.181-.19-.29-.45-.29-.71 0-.26.109-.52.29-.71.38-.37 1.04-.37 1.42 0zm-8 0c.18.19.29.45.29.71 0 .26-.11.52-.29.71-.19.18-.45.29-.71.29-.271 0-.521-.11-.71-.29-.181-.19-.29-.44-.29-.71 0-.27.109-.52.29-.71.37-.37 1.04-.37 1.42 0zm28 0c.18.19.29.45.29.71 0 .26-.11.52-.29.71-.19.18-.44.29-.71.29-.271 0-.521-.11-.71-.29-.181-.19-.29-.45-.29-.71 0-.26.109-.52.29-.71.37-.37 1.05-.37 1.42 0zm-17 0a1.01 1.01 0 0 1 0 1.42c-.19.18-.45.29-.71.29-.26 0-.521-.11-.71-.29-.181-.19-.29-.45-.29-.71 0-.26.109-.52.29-.71.37-.37 1.04-.37 1.42 0zm3 0c.18.19.29.45.29.71 0 .26-.11.52-.29.71-.19.19-.45.29-.71.29-.26 0-.521-.1-.71-.29-.181-.19-.29-.45-.29-.71 0-.27.109-.52.29-.71.359-.37 1.05-.37 1.42 0zm3 0c.18.19.29.45.29.71 0 .26-.101.52-.29.71-.19.18-.45.29-.71.29-.26 0-.521-.11-.71-.29-.181-.19-.29-.45-.29-.71 0-.26.109-.52.29-.71.37-.37 1.04-.37 1.42 0zm3 0c.18.19.29.45.29.71 0 .26-.11.52-.29.71-.19.18-.45.29-.71.29-.26 0-.521-.11-.71-.29-.181-.19-.29-.45-.29-.71 0-.27.109-.52.29-.71.38-.37 1.05-.37 1.42 0zm-13.42 53.42c-.181-.19-.29-.45-.29-.71 0-.26.109-.52.29-.71.37-.37 1.05-.37 1.42 0 .18.19.29.44.29.71 0 .26-.11.52-.29.71-.19.181-.45.29-.71.29-.26 0-.521-.109-.71-.29zm3 0c-.181-.19-.29-.44-.29-.71 0-.26.109-.52.29-.71.37-.37 1.04-.37 1.42 0a1.012 1.012 0 0 1 0 1.42c-.19.181-.45.29-.71.29-.271 0-.521-.109-.71-.29zm3 0c-.181-.19-.29-.45-.29-.71 0-.26.109-.52.29-.71.37-.37 1.05-.37 1.42 0 .18.19.29.45.29.71 0 .26-.11.52-.29.71-.19.181-.45.29-.71.29-.271 0-.521-.109-.71-.29zm3 0c-.181-.19-.29-.45-.29-.71 0-.26.109-.52.29-.71.38-.37 1.04-.37 1.42 0a1.012 1.012 0 0 1 0 1.42c-.19.181-.45.29-.71.29-.26 0-.521-.109-.71-.29zm3 0c-.181-.19-.29-.44-.29-.71 0-.26.109-.52.29-.71.37-.37 1.05-.37 1.42.01.18.18.29.44.29.7 0 .26-.11.52-.29.71-.19.181-.45.29-.71.29-.26 0-.521-.109-.71-.29zM18.707 9.291a1 1 0 0 1 0 1.415l-1 1a1 1 0 0 1-1.414-1.414l1-1a1 1 0 0 1 1.414 0zM36 4.681v50.635a4.688 4.688 0 0 1-4.681 4.683H4.682A4.688 4.688 0 0 1 0 55.316V4.681A4.688 4.688 0 0 1 4.682-.002h26.636C33.898-.002 36 2.1 36 4.681zM2 51.999h32v-44H2zm32 2H2v1.317a2.685 2.685 0 0 0 2.682 2.683h26.636A2.685 2.685 0 0 0 34 55.316zm0-48V4.68a2.685 2.685 0 0 0-2.681-2.683H4.682A2.685 2.685 0 0 0 2 4.681v1.317z"/></g></g></svg>