<svg xmlns="http://www.w3.org/2000/svg" width="46" height="60" viewBox="0 0 46 60"><g><g><path fill="#ffc000" d="M46 9.08v19.055c0 10.416-4.69 20.314-12.546 26.479-3.167 2.485-6.588 4.282-10.169 5.344a1.028 1.028 0 0 1-.57 0c-3.581-1.06-7.002-2.86-10.17-5.344C4.69 48.451 0 38.551 0 28.134V9.08a1 1 0 0 1 1-.999C15.695 8.08 22.168.527 22.232.452c.38-.455 1.155-.455 1.535 0C23.86.56 30.404 8.081 45 8.081c.552 0 1 .446 1 .998zm-2 .987c-12.242-.272-18.865-5.488-21-7.533-2.135 2.044-8.758 7.261-21 7.533v18.068c0 9.809 4.404 19.122 11.782 24.91 2.883 2.263 5.983 3.916 9.218 4.914 3.235-1 6.335-2.65 9.218-4.913C39.596 47.256 44 37.944 44 28.135zM23.562 8.085c3.015 2.046 8.163 4.682 15.564 5.624A1 1 0 0 1 40 14.7v13.436c0 8.594-3.833 16.732-10.253 21.77-2.024 1.588-4.172 2.832-6.382 3.698a1.014 1.014 0 0 1-.73 0c-2.212-.867-4.36-2.112-6.381-3.698C9.833 44.868 6 36.73 6 28.136V14.7a1 1 0 0 1 .874-.99c7.4-.943 12.549-3.58 15.564-5.625.339-.23.785-.23 1.124 0zM23 10.108c-3.125 2.02-8.101 4.442-15 5.462v12.565c0 7.986 3.548 15.537 9.49 20.2 1.757 1.379 3.609 2.474 5.51 3.26 1.901-.785 3.753-1.881 5.51-3.26 5.943-4.662 9.49-12.213 9.49-20.2V15.57c-6.9-1.02-11.875-3.441-15-5.462zm-2.05 26.466l13.297-15.172a1.001 1.001 0 0 1 1.411-.093.996.996 0 0 1 .094 1.408l-14 15.976a.999.999 0 0 1-.719.34H21c-.265 0-.52-.105-.707-.292l-8-7.988a.997.997 0 0 1 0-1.413 1 1 0 0 1 1.414 0z"/></g></g></svg>