<svg xmlns="http://www.w3.org/2000/svg" width="55" height="53" viewBox="0 0 55 53"><g><g><path fill="#ffc000" d="M45.058 24.01c.553 0 1 .447 1 .996a.998.998 0 0 1-1 .994c-.553 0-1-.446-1-.994 0-.55.447-.995 1-.995zm-36.029 0c.553 0 1 .447 1 .996a.998.998 0 0 1-1 .994c-.553 0-1-.446-1-.994 0-.55.447-.995 1-.995zm3.002 2.984c.553 0 1.001.445 1.001.995s-.448.995-1 .995c-.553 0-1.001-.446-1.001-.995 0-.55.448-.995 1-.995zm6.005 0c.553 0 1.001.445 1.001.995s-.448.995-1 .995c-.553 0-1.002-.446-1.002-.995 0-.55.449-.995 1.001-.995zm-3.002 2.984c.553 0 1 .446 1 .994 0 .55-.447.995-1 .995-.553 0-1.001-.445-1.001-.995a.998.998 0 0 1 1-.994zm6.005 0c.552 0 1 .446 1 .994 0 .55-.448.995-1 .995-.553 0-1.001-.445-1.001-.995a.998.998 0 0 1 1-.994zm3.002 2.984c.553 0 1 .445 1 .994 0 .55-.447.995-1 .995-.553 0-1-.445-1-.995 0-.549.447-.994 1-.994zm6.005 0c.553 0 1 .445 1 .994 0 .55-.447.995-1 .995-.553 0-1-.445-1-.995 0-.549.447-.994 1-.994zm3.002-2.984c.553 0 1.001.446 1.001.994 0 .55-.448.995-1 .995-.553 0-1.001-.445-1.001-.995a.998.998 0 0 1 1-.994zm-6.004 5.967c.552 0 1 .446 1 .995 0 .55-.448.995-1 .995-.553 0-1.001-.446-1.001-.995 0-.55.448-.995 1-.995zm9.007-8.95c.553 0 1 .444 1 .994s-.447.995-1 .995c-.553 0-1.001-.446-1.001-.995 0-.55.448-.995 1-.995zm6.005 0c.552 0 1 .444 1 .994s-.448.995-1 .995c-.553 0-1.001-.446-1.001-.995 0-.55.448-.995 1-.995zm-3.003 2.983c.553 0 1.001.446 1.001.994 0 .55-.448.995-1 .995-.554 0-1.002-.445-1.002-.995a.998.998 0 0 1 1.001-.994zm6.353 1.918l-.07.042 9.663 5.453L27.5 53.003 0 37.391l9.665-5.453L0 26.45l9.664-5.454L0 15.51 27.5-.008 54.998 15.51l-9.664 5.487 9.664 5.454-9.401 5.337c-.063.04-.12.082-.19.108zM4.045 15.516L27.5 28.831l15.81-8.977 7.644-4.34L27.5 2.28zm-.001 10.94l1.36.772a.983.983 0 0 1 .622-.234c.552 0 1 .445 1 .995 0 .05-.022.094-.029.143l10.063 5.712a.988.988 0 0 1 .977-.882c.553 0 1.001.445 1.001.994a.975.975 0 0 1-.407.78l2.203 1.25c.068-.015.133-.042.206-.042.445 0 .81.293.94.693l5.52 3.134 4.595-2.607c-.018-.075-.046-.145-.046-.225a.998.998 0 0 1 1.695-.713l2.265-1.285a.993.993 0 0 1-.958-.986.998.998 0 0 1 1-.994c.553 0 1.002.445 1.002.994a.958.958 0 0 1-.134.47l6.393-3.63 3.948-2.242a.964.964 0 0 1-.2-.565.998.998 0 0 1 1.91-.407l1.985-1.126-7.64-4.312-.32.182a.99.99 0 0 1-.94.69c-.071 0-.135-.026-.203-.04l-2.204 1.25a.97.97 0 0 1 .406.78.998.998 0 0 1-1 .994.987.987 0 0 1-.979-.88l-10.06 5.711c.008.05.03.092.03.143 0 .549-.449.994-1.001.994-.553 0-1.001-.445-1.001-.994 0-.214.082-.402.198-.564l-10.338-5.87c.077.14.132.294.132.467a.998.998 0 0 1-1.001.994c-.553 0-1.001-.446-1.001-.994 0-.534.424-.962.955-.987l-2.264-1.284a.996.996 0 0 1-.693.282.995.995 0 0 1-.892-.564zm39.27 6.628L27.5 42.063l-15.816-8.979-7.639 4.311 23.454 13.318 23.455-13.318z"/></g></g></svg>