<svg xmlns="http://www.w3.org/2000/svg" width="60" height="51" viewBox="0 0 60 51"><g><g><path fill="#ffc000" d="M60 27.97c0 6.633-5.396 12.028-12.028 12.028H44a.999.999 0 1 1 0-2h3.972C53.501 37.999 58 33.5 58 27.97c0-4.81-3.51-9.1-8.166-9.984-.136-.02-2.457-.335-4.684.002a.995.995 0 0 1-1.138-.84 1 1 0 0 1 .838-1.138c1.531-.232 3.062-.196 4.083-.124-.671-7.753-7.104-13.888-14.849-13.888-4.696 0-9.417 2.38-12.284 6.13a8.977 8.977 0 0 1 3.2 6.87 1 1 0 1 1-2 0 6.995 6.995 0 0 0-3.91-6.27c-.07-.035-.139-.07-.21-.102a6.866 6.866 0 0 0-.835-.32l-.106-.028a6.84 6.84 0 0 0-.79-.176c-.076-.013-.154-.027-.232-.036A6.897 6.897 0 0 0 16 7.998c-3.859 0-7 3.141-7 7 0 .087.007.172.013.256l.013.195-.011.184c-.007.124-.015.245-.015.365v.631l-.567.27C4.705 18.687 2 22.999 2 27.153 2 33.134 6.865 38 12.845 38H18a.999.999 0 1 1 0 2h-5.155C5.762 39.998 0 34.234 0 27.151c0-4.755 2.857-9.506 7.017-11.773A5.286 5.286 0 0 1 7 15c0-4.964 4.037-9 9-9 .341 0 .677.023 1.009.06.102.01.2.03.302.045.232.035.462.075.687.125.116.027.23.059.345.09a9.184 9.184 0 0 1 .962.317c.205.082.406.172.604.27.076.035.155.062.23.1 3.257-4.344 8.515-7.008 13.945-7.008 8.945 0 16.364 7.194 16.892 16.194C56.173 17.559 60 22.48 60 27.97zM39.707 41.29a1 1 0 0 1 0 1.414l-7.999 8a.99.99 0 0 1-.326.216.986.986 0 0 1-.764 0 .991.991 0 0 1-.326-.217l-8-7.999a1 1 0 1 1 1.415-1.414L30 47.584V26.998a1 1 0 1 1 2 0v20.586l6.293-6.293a1 1 0 0 1 1.414 0z"/></g></g></svg>